<svg width="24" height="24" viewBox="0 0 24 24" fill="none" xmlns="http://www.w3.org/2000/svg">
<path d="M12 12.7831C12.0671 12.9757 12.1144 13.1749 12.1413 13.3775C12.34 13.4043 12.5355 13.4522 12.7246 13.5204C12.9272 13.2242 13.0229 12.8652 12.9954 12.5048C12.642 12.4765 12.2901 12.5749 12 12.7831Z" fill="black"/>
<path d="M19.9375 13.0782H21V14.4388H19.9375V13.0782ZM5.0625 11.7177H4V10.3571H5.0625V11.7177Z" fill="black"/>
<path d="M12.0025 12.5026C11.9827 12.7775 12.0811 13.0477 12.2722 13.2427C12.4632 13.4376 12.728 13.5381 12.9975 13.5178C13.0173 13.2429 12.9189 12.9727 12.7278 12.7777C12.5368 12.5828 12.272 12.4823 12.0025 12.5026Z" fill="black"/>
<path d="M19.7143 16.7391C19.5392 16.7392 19.3963 16.4549 19.3929 16.0997C19.3835 15.2058 19.1985 14.3566 18.879 13.7408C18.5894 13.1755 18.1994 12.8723 17.7978 12.9004C17.7094 12.9071 17.6236 12.8398 17.5605 12.7142C17.4974 12.5885 17.4626 12.4158 17.4643 12.2364C17.4726 11.3608 17.3069 10.5153 17.0046 9.89013C16.7023 9.26501 16.2888 8.91288 15.8571 8.91304C15.6796 8.91304 15.5357 8.62106 15.5357 8.26087C15.5347 6.46078 14.8158 5.00202 13.9286 5H10.0714C9.18424 5.00202 8.46528 6.46078 8.46429 8.26087C8.46429 8.62106 8.32038 8.91304 8.14286 8.91304C7.71127 8.91304 7.29782 9.26523 6.99558 9.89033C6.69334 10.5154 6.52772 11.3609 6.536 12.2364C6.53765 12.4158 6.50283 12.5885 6.43974 12.7142C6.37665 12.8398 6.29084 12.9071 6.20251 12.9004C5.80081 12.8722 5.41062 13.1754 5.12095 13.7408C4.80149 14.3566 4.61652 15.2058 4.60714 16.0997C4.60373 16.4549 4.46082 16.7392 4.28571 16.7391C3.57596 16.7407 3.0008 17.9078 3 19.3478V20H21V19.3478C20.9992 17.9078 20.424 16.7407 19.7143 16.7391ZM7 18.125H6V16.25H7V18.125ZM10.5629 16.25L9.41727 14.035H8V12.84H8.79917L8.09051 11.47L8.52759 10.625L11 15.405L10.5629 16.25ZM11 10.625H10V8.75H11V10.625ZM13.936 17.4902C13.9023 17.7422 13.7973 17.9391 13.6628 18.0021C13.4904 18.0833 13.3132 18.1246 13.1354 18.125C12.4767 18.1193 11.8559 17.5469 11.4516 16.5724C11.0473 15.5979 10.9044 14.3294 11.0639 13.1318C11.0975 12.8797 11.2025 12.6829 11.337 12.6199C12.0674 12.2779 12.84 12.679 13.3723 13.6765C13.9046 14.674 14.1185 16.1217 13.936 17.4902ZM14 8.75H13V6.875H14V8.75ZM15 14.375H14V12.5H15V14.375ZM18 18.125H17V16.25H18V18.125Z" fill="black"/>
</svg>
