<svg width="24" height="24" viewBox="0 0 24 24" fill="none" xmlns="http://www.w3.org/2000/svg">
<path d="M7.16078 22C4.5015 14.674 10.1205 11.9991 10.1205 11.9991C9.72734 15.9083 12.3845 18.9539 12.3845 18.9539C13.3618 18.7074 15.2271 17.5552 15.2271 17.5552C15.2271 18.9539 14.2429 21.9983 14.2429 21.9983C14.2429 21.9983 17.6884 19.7709 18.7731 16.0715C19.8563 12.3721 16.7098 8.65812 16.7098 8.65812C16.8994 11.2765 15.8398 13.8517 13.764 15.8192C13.8679 15.7189 13.955 15.6076 14.0219 15.487C14.3948 14.8634 14.9936 13.2428 14.643 9.48973C14.1495 4.22151 8.43988 2 8.43988 2C8.932 5.20988 7.45633 5.94942 3.99962 12.0423C0.542907 18.1339 7.16078 22 7.16078 22Z" fill="black"/>
</svg>
