<svg width="24" height="24" viewBox="0 0 24 24" fill="none" xmlns="http://www.w3.org/2000/svg">
<path d="M11.2 14H9.2V9.5C9.2 9.1 9.2 8.8 9.2 7.8C9.2 6.7 9.2 5.8 9.2 5.7V2.4C9.2 2.2 9 2 8.8 2H7.1C6.9 2 6.8 2.2 6.8 2.4V14H4.8C4.1 14 3.5 14.6 3.5 15.4V16.4C3.5 18.2 3 19.9 2.2 21.3C2 21.5 2 21.7 2 21.8C2.1 21.9 2.2 22 2.4 22H10.8C10.9 22 11.1 21.9 11.1 21.8C12 20.2 12.5 18.3 12.5 16.4V15.4C12.5 14.7 11.9 14 11.2 14ZM7.5 12.7H8.4V14H7.5V12.7ZM11.8 16.1H4.1V15.5C4.1 15.2 4.4 14.9 4.7 14.9H11.2C11.5 14.9 11.8 15.2 11.8 15.5V16.1Z" fill="#040006"/>
<path d="M15 16.7C14.5 16.7 14.1 16.9 13.8 17.2C13.6 17.4 13.6 17.7 13.8 17.9C14 18.1 14.3 18.1 14.5 17.9C14.7 17.7 14.9 17.7 15.1 17.7C15.3 17.7 15.5 17.8 15.7 17.9C15.9 18.1 15.9 18.3 15.9 18.5C15.9 18.7 15.8 18.9 15.7 19.1C15.5 19.3 15.5 19.6 15.7 19.8C15.8 19.9 15.9 19.9 16 19.9C16.1 19.9 16.2 19.9 16.3 19.8C16.6 19.5 16.8 19 16.8 18.6C16.8 18.1 16.6 17.7 16.3 17.4C15.9 16.9 15.4 16.7 15 16.7Z" fill="#040006"/>
<path d="M14.1 12.4C14.5 12.4 14.8 12.7 14.8 13.2C14.8 13.4 15 13.6 15.2 13.6C15.4 13.6 15.6 13.4 15.6 13.2C15.6 12.3 14.9 11.5 14 11.5C13.1 11.5 12.4 12.2 12.4 13.2C12.4 13.4 12.6 13.6 12.8 13.6C13 13.6 13.2 13.4 13.2 13.2C13.4 12.7 13.7 12.4 14.1 12.4Z" fill="#040006"/>
<path d="M20.5 16.4C20.7 16 20.8 15.6 20.8 15.2C20.8 13.8 19.8 12.6 18.5 12.6C17.9 12.6 17.3 12.9 16.9 13.3C16.7 13.5 16.7 13.7 16.9 13.9C17 14.1 17.3 14.1 17.4 13.9C17.7 13.6 18.1 13.4 18.4 13.4C19.2 13.4 19.9 14.2 19.9 15.1C19.9 15.5 19.8 16 19.5 16.3C19.4 16.4 19.4 16.6 19.4 16.7C19.4 16.9 19.6 17 19.7 17C20.6 17.2 21.2 18 21.2 19C21.2 20.1 20.4 21 19.4 21C18.8 21 18.2 20.6 17.9 20C17.8 19.8 17.5 19.7 17.4 19.9C17.2 20 17.2 20.3 17.3 20.5C17.8 21.4 18.6 21.9 19.5 21.9C20.9 21.9 22.1 20.6 22.1 19C22 17.9 21.4 16.8 20.5 16.4Z" fill="#040006"/>
</svg>
