<svg width="24" height="24" viewBox="0 0 24 24" fill="none" xmlns="http://www.w3.org/2000/svg">
<path d="M16 13.6928C16.0671 13.8725 16.1144 14.0585 16.1413 14.2475C16.34 14.2726 16.5355 14.3173 16.7246 14.381C16.9272 14.1045 17.0229 13.7694 16.9954 13.433C16.642 13.4066 16.2901 13.4985 16 13.6928Z" fill="black"/>
<path d="M19.9375 14.0635H21V15.3333H19.9375V14.0635ZM5.0625 12.7937H4V11.5238H5.0625V12.7937Z" fill="black"/>
<path d="M13.0025 19.1452C12.9827 19.4019 13.0811 19.6541 13.2722 19.836C13.4632 20.018 13.728 20.1117 13.9975 20.0928C14.0173 19.8362 13.9189 19.584 13.7278 19.4021C13.5368 19.2201 13.272 19.1264 13.0025 19.1452Z" fill="black"/>
<path d="M19.7143 19.5155C19.5392 19.5156 19.3963 19.299 19.3929 19.0283C19.3835 18.3473 19.1985 17.7002 18.879 17.2311C18.5894 16.8004 18.1994 16.5694 17.7978 16.5907C17.7094 16.5959 17.6236 16.5446 17.5605 16.4489C17.4974 16.3532 17.4626 16.2215 17.4643 16.0849C17.4726 15.4178 17.3069 14.7735 17.0046 14.2972C16.7023 13.821 16.2888 13.5527 15.8571 13.5528C15.6796 13.5528 15.5357 13.3303 15.5357 13.0559C15.5347 11.6844 14.8158 10.573 13.9286 10.5714H10.0714C9.18424 10.573 8.46528 11.6844 8.46429 13.0559C8.46429 13.3303 8.32038 13.5528 8.14286 13.5528C7.71127 13.5528 7.29782 13.8211 6.99558 14.2974C6.69334 14.7737 6.52772 15.4178 6.536 16.0849C6.53765 16.2215 6.50283 16.3532 6.43974 16.4489C6.37665 16.5446 6.29084 16.5959 6.20251 16.5907C5.80081 16.5693 5.41062 16.8003 5.12095 17.2311C4.80149 17.7003 4.61652 18.3473 4.60714 19.0283C4.60373 19.299 4.46082 19.5156 4.28571 19.5155C3.57596 19.5168 3.0008 20.4059 3 21.5031V22H21V21.5031C20.9992 20.4059 20.424 19.5168 19.7143 19.5155ZM7 20.5714H6V19.1429H7V20.5714ZM10.5629 19.1429L9.41727 17.4552H8V16.5448H8.79917L8.09051 15.501L8.52759 14.8571L11 18.499L10.5629 19.1429ZM11 14.8571H10V13.4286H11V14.8571ZM13.936 20.0878C13.9023 20.2798 13.7973 20.4298 13.6628 20.4778C13.4904 20.5397 13.3132 20.5711 13.1354 20.5714C12.4767 20.5671 11.8559 20.131 11.4516 19.3885C11.0473 18.646 10.9044 17.6795 11.0639 16.7671C11.0975 16.575 11.2025 16.4251 11.337 16.3771C12.0674 16.1165 12.84 16.4221 13.3723 17.1821C13.9046 17.9421 14.1185 19.0451 13.936 20.0878ZM14 13.4286H13V12H14V13.4286ZM15 17.7143H14V16.2857H15V17.7143ZM18 20.5714H17V19.1429H18V20.5714Z" fill="black"/>
<path d="M4.00033 11.0649C4.01765 12.1971 4.47231 12.9698 4.85065 13.4187L5.32809 13.9947C5.3794 13.9374 5.43441 13.883 5.49282 13.8319C5.79149 13.5677 6.17515 13.401 6.58554 13.357C6.69623 12.5214 7.40181 11.8601 8.30317 11.7469C8.43857 10.8297 9.28454 10.1456 10.2849 10.1444H13.713C14.3533 10.1444 14.9547 10.4283 15.3307 10.908C15.7068 10.6859 16.1654 10.6176 16.5978 10.7193C16.7001 10.743 16.7801 10.8169 16.8057 10.9117C16.9155 11.3115 16.842 11.7355 16.6025 12.0834C16.6923 12.1441 16.7766 12.2115 16.8544 12.285C17.164 12.575 17.3603 12.9522 17.4125 13.357C17.8229 13.401 18.2066 13.5677 18.5053 13.8319C18.6843 13.989 18.8309 14.1751 18.9377 14.381L19.2607 14.0543C19.3993 13.916 19.5209 13.764 19.6234 13.6009C20.309 12.4903 19.9367 11.1703 19.4693 10.3304C19.3768 10.5317 19.2375 10.7116 19.0613 10.8574C18.6251 11.2201 18.0609 11.3096 17.5887 11.0908C16.5229 10.5969 16.9651 9.38765 17.1315 8.9324C17.1795 8.80104 17.2302 8.67134 17.2793 8.54612C17.5631 7.82115 17.8082 7.19505 17.4583 6.50054C17.2098 6.00739 16.8158 5.72372 16.3637 5.49986C16.4959 5.85253 16.5956 6.20894 16.6232 6.58091C16.6762 7.29429 16.434 7.93582 15.9582 8.34133C15.6124 8.64058 15.1483 8.79417 14.6758 8.76572C14.1884 8.73148 13.734 8.47788 13.49 8.10393C13.1709 7.61484 13.1994 6.95411 13.5724 6.19324L13.6179 6.10071C14.1 5.11953 14.5166 4.27215 13.7807 3.39635C13.6216 3.20977 13.4413 3.03948 13.2431 2.88839C13.5097 3.86349 13.3359 4.56478 12.7296 4.89828C12.2449 5.16497 11.5704 5.17131 11.0895 4.91375C10.6697 4.68903 10.1987 4.21475 10.3384 3.23204C10.3905 2.86608 10.52 2.46011 10.7322 2C10.3897 2.0657 9.92996 2.21583 9.60483 2.55868C9.24234 2.9409 9.11285 3.49453 9.21995 4.2042C9.26801 4.523 9.42603 4.85542 9.59329 5.20737C9.9421 5.9413 10.3375 6.77314 9.6876 7.60307C9.28051 8.12273 8.58824 8.37425 7.96439 8.22901C6.83918 7.96695 6.85629 7.14323 6.87 6.48138C6.87828 6.08264 6.88607 5.70604 6.68913 5.44219C6.58818 5.30712 6.47057 5.18338 6.33867 5.07349C6.52604 6.32216 6.07574 7.20807 5.29649 8.20234C4.6039 9.08607 3.98358 9.97 4.00033 11.0649Z" fill="black"/>
</svg>
