<svg width="24" height="24" viewBox="0 0 24 24" fill="none" xmlns="http://www.w3.org/2000/svg">
<path d="M8.16078 22C5.5015 14.674 11.1205 11.9991 11.1205 11.9991C10.7273 15.9083 13.3845 18.9539 13.3845 18.9539C14.3618 18.7074 16.2271 17.5552 16.2271 17.5552C16.2271 18.9539 15.2429 21.9983 15.2429 21.9983C15.2429 21.9983 18.6884 19.7709 19.7731 16.0715C20.8563 12.3721 17.7098 8.65812 17.7098 8.65812C17.8994 11.2765 16.8398 13.8517 14.764 15.8192C14.8679 15.7189 14.955 15.6076 15.0219 15.487C15.3948 14.8634 15.9936 13.2428 15.643 9.48973C15.1495 4.22151 9.43988 2 9.43988 2C9.932 5.20988 8.45633 5.94942 4.99962 12.0423C1.54291 18.1339 8.16078 22 8.16078 22Z" fill="black"/>
<path d="M15.7295 21.3658L15.471 19.4106C15.3796 18.7185 14.7099 18.1493 13.8112 18L14.643 18.7336L14.3533 18.9213L13.5443 18.2078V19.1158H13.1628V18.2078L12.3538 18.9212L12.0641 18.7336L12.8957 18C12.48 18.0694 12.1012 18.2313 11.8084 18.465L11.4667 19.3696C12.2033 19.5814 12.7334 20.0752 12.8559 20.6637L12.9864 21.2882C13.0388 21.5382 12.9436 21.7929 12.726 21.9853C12.7203 21.9903 12.7142 21.9951 12.7083 22H14.9703C15.1859 22 15.3914 21.9311 15.5361 21.8103C15.6808 21.6894 15.751 21.528 15.7295 21.3658Z" fill="black"/>
<path d="M9.20224 21.3248L9.33451 20.7325C9.45875 20.1742 9.99623 19.7058 10.7431 19.5049L10.3847 18.6178C10.368 18.5766 10.3797 18.5321 10.4162 18.4979C10.4528 18.4636 10.5099 18.4434 10.5706 18.4434H12.419C12.7045 18.2353 13.0567 18.079 13.4458 17.9878L13.0925 17.1131C13.0758 17.0719 13.0875 17.0274 13.124 16.9932C13.1606 16.9589 13.2177 16.9387 13.2784 16.9387H13.6C13.0726 16.4223 12.2671 16.0828 11.374 16.0004L12.464 16.9915L12.1587 17.1595L11.1509 16.2431V17.4859H10.7641V16.2431L9.75625 17.1596L9.4509 16.9916L10.5414 16C9.04842 16.1347 7.88141 16.9766 7.72073 18.035L7.20453 21.3937C7.18079 21.5482 7.25106 21.7026 7.3978 21.8182C7.54454 21.9339 7.75391 22 7.97365 22H9.48409C9.47815 21.9953 9.472 21.9908 9.46623 21.986C9.24559 21.8036 9.1491 21.5619 9.20224 21.3248Z" fill="black"/>
<path d="M10.4168 15.9493C10.6292 15.9494 10.8411 15.9638 11.0494 15.9924L11.4667 15H9.33333L9.72514 16C9.9524 15.9663 10.1843 15.9493 10.4168 15.9493Z" fill="black"/>
<path d="M13.6 18C13.6 17.9043 13.6 17.9043 13.6 18Z" fill="black"/>
<path d="M13.4459 20.9316C13.3182 20.4721 12.7102 20.103 11.9109 20L12.6886 20.6181L12.3465 20.7568L11.6769 20.2247V20.8069H11.2565V20.2247L10.5867 20.7569L10.2446 20.6182L11.0224 20.0001C10.2231 20.1031 9.61505 20.4721 9.48732 20.9316L9.34363 21.4483C9.30528 21.5862 9.37519 21.7267 9.53496 21.8328C9.69472 21.9389 9.92832 22 10.1742 22H12.7591C13.005 22 13.2386 21.9389 13.3984 21.8328C13.5581 21.7267 13.6281 21.5862 13.5897 21.4483L13.4459 20.9316Z" fill="black"/>
<path d="M10.4 19.9188C10.6129 19.9191 10.8254 19.9463 11.0344 20L11.4667 18H9.33333L9.7656 20C9.97463 19.9463 10.1871 19.9191 10.4 19.9188Z" fill="black"/>
</svg>
