<svg width="24" height="24" viewBox="0 0 24 24" fill="none" xmlns="http://www.w3.org/2000/svg">
<path d="M21.8102 20.2163L21.2612 14.7174C21.067 12.7709 19.6443 11.17 17.7355 10.75L19.5023 12.8132L18.887 13.341L17.1686 11.3344V13.8882H16.3582V11.3344L14.6398 13.341L14.0245 12.8131L15.7909 10.75C14.9078 10.9451 14.1033 11.4006 13.4812 12.0577L12.7554 14.6019C14.32 15.1976 15.4461 16.5865 15.7064 18.2418L15.9835 19.9981C16.0948 20.7011 15.8926 21.4177 15.4303 21.9585C15.4182 21.9727 15.4053 21.9861 15.3929 22H20.1975C20.6555 22.0001 21.0921 21.8063 21.3994 21.4664C21.7067 21.1265 21.8559 20.6724 21.8102 20.2163Z" fill="black"/>
<path d="M6.43489 20.3121L6.71585 18.8312C6.97975 17.4356 8.12143 16.2645 9.70782 15.7622L8.94654 13.5446C8.91108 13.4414 8.93588 13.3303 9.01352 13.2446C9.09116 13.159 9.21262 13.1086 9.34156 13.1086H13.2678C13.8741 12.5883 14.6223 12.1976 15.4489 11.9696L14.6983 9.78284C14.6628 9.67965 14.6876 9.56859 14.7652 9.48289C14.8429 9.3972 14.9643 9.34682 15.0933 9.34682H15.7763C14.656 8.05582 12.9451 7.20702 11.048 7.00094L13.3633 9.47887L12.7147 9.89873L10.5741 7.60769V10.7147H9.7524V7.60769L7.61168 9.89895L6.96308 9.47908L9.27947 7C6.10816 7.33668 3.62928 9.44156 3.28799 12.0875L2.19152 20.4843C2.14108 20.8705 2.29033 21.2564 2.60203 21.5456C2.91373 21.8348 3.35846 22 3.82521 22H7.03359C7.02095 21.9883 7.00791 21.977 6.99563 21.965C6.52697 21.509 6.32202 20.9048 6.43489 20.3121Z" fill="black"/>
<path d="M10.5253 6.74665C10.9765 6.74683 11.4266 6.819 11.869 6.9621L12.7554 2H8.22397L9.0562 7C9.53895 6.83125 10.0314 6.74632 10.5253 6.74665Z" fill="black"/>
<path d="M16.6899 10.75C17.5847 10.5706 18.499 10.5706 19.3938 10.75L20.3076 7H15.7762L16.6899 10.75Z" fill="black"/>
<path d="M16.9596 19.3291C16.6884 18.1802 15.3968 17.2576 13.699 17L15.351 18.5453L14.6244 18.8921L13.2019 17.5617V19.0172H12.3089V17.5617L10.8863 18.8922L10.1596 18.5455L11.8117 17.0001C10.1139 17.2577 8.82236 18.1803 8.55106 19.3291L8.24583 20.6208C8.16437 20.9655 8.31288 21.3167 8.65224 21.582C8.99161 21.8473 9.4878 22 10.0102 22H15.5007C16.0231 22 16.5193 21.8473 16.8586 21.582C17.198 21.3167 17.3465 20.9655 17.265 20.6208L16.9596 19.3291Z" fill="black"/>
<path d="M10.4897 16.8477C10.942 16.8483 11.3932 16.8993 11.8372 17L12.7554 13.25H8.22397L9.14216 17C9.58616 16.8993 10.0374 16.8483 10.4897 16.8477Z" fill="black"/>
</svg>
