<svg width="24" height="24" viewBox="0 0 24 24" fill="none" xmlns="http://www.w3.org/2000/svg">
<path d="M8.45719 19.8H10.3452C10.4262 19.3634 10.592 18.9533 10.8304 18.6H8.45719C8.31236 18.6 8.19496 18.7343 8.19496 18.9V19.5C8.19496 19.6657 8.31236 19.8 8.45719 19.8Z" fill="black"/>
<path d="M8.30348 17.4L16.7177 13.0853C16.8198 13.033 16.9018 12.9296 16.9455 12.798C16.9892 12.6665 16.9911 12.5175 16.9506 12.3841L14.2626 3.34267C14.2238 3.20986 14.146 3.10284 14.0466 3.04541C13.9472 2.98798 13.8343 2.9849 13.7332 3.03686L6.08253 6.95947C5.6593 7.17852 5.45091 7.80377 5.61625 8.35852L8.30348 17.4ZM12.6324 5.32959C12.7345 5.27677 12.8485 5.2794 12.9491 5.3369C13.0497 5.39441 13.1286 5.50204 13.1684 5.63594L14.9671 11.6647C15.0208 11.8442 14.9971 12.0474 14.9051 12.1979C14.8131 12.3484 14.6667 12.4232 14.521 12.3942C14.3754 12.3652 14.2527 12.2368 14.1991 12.0573L12.3974 6.03019C12.3575 5.89688 12.3598 5.74831 12.4037 5.61721C12.4477 5.4861 12.5296 5.38321 12.6316 5.33121L12.6324 5.32959ZM10.3278 6.50643C10.4299 6.4536 10.5439 6.45624 10.6445 6.51374C10.7451 6.57125 10.824 6.67888 10.8637 6.81277L12.6633 12.8415C12.7169 13.0211 12.6932 13.2245 12.6012 13.375C12.5091 13.5255 12.3626 13.6004 12.2169 13.5713C12.0712 13.5423 11.9485 13.4137 11.8948 13.2341L10.0944 7.20649C10.0115 6.92963 10.1155 6.6172 10.3269 6.50805L10.3278 6.50643ZM8.02395 7.68327C8.126 7.63041 8.23994 7.63297 8.34055 7.69037C8.44115 7.74777 8.5201 7.85528 8.55992 7.98907L10.3587 14.0183C10.4416 14.2958 10.3368 14.6086 10.1247 14.7171C9.91262 14.8255 9.67349 14.6884 9.59061 14.411L7.78854 8.38333C7.74883 8.25002 7.75123 8.10152 7.79523 7.97053C7.83923 7.83954 7.92121 7.73679 8.02313 7.68489L8.02395 7.68327Z" fill="black"/>
<path d="M4.61264 18.3634C4.61264 18.3559 4.60083 18.2715 4.60032 18.2646C4.57876 18.0419 4.67474 17.8255 4.84623 17.7101C5.01771 17.5947 5.23344 17.6015 5.39895 17.7273C5.97618 18.1514 6.71723 18.1767 7.31649 17.7928L5.09664 11.4C4.52024 11.7242 4.14333 12.3694 4.10913 13.0906C4.09778 13.3234 3.96192 13.5254 3.76524 13.602C3.26852 13.7881 2.87119 14.2114 2.68058 14.7576C2.48997 15.3038 2.52574 15.9166 2.77824 16.4303C2.89931 16.6894 2.82729 17.009 2.61092 17.1728C2.14334 17.5262 1.9368 18.1801 2.10199 18.784C2.26717 19.388 2.76532 19.8003 3.32949 19.8C4.03815 19.8 4.61264 19.1568 4.61264 18.3634Z" fill="black"/>
<path d="M16.3909 13.828L11.0244 16.6197C10.8879 16.6902 10.8085 16.8798 10.8357 17.0709C10.8628 17.262 10.9887 17.4003 11.1352 17.4H17.5539C17.6594 17.4 17.7574 17.3274 17.8128 17.2083C17.8682 17.0891 17.8732 16.9404 17.8259 16.8152L16.7743 14.0235C16.7039 13.8364 16.5375 13.7516 16.3909 13.828Z" fill="black"/>
<path d="M12.9122 19.8H17.6828C17.7796 19.8 17.8582 19.6657 17.8582 19.5V18.9C17.8582 18.7343 17.7796 18.6 17.6828 18.6H12.5873C12.7469 18.9532 12.8579 19.3634 12.9122 19.8Z" fill="black"/>
<path d="M10.8304 19.8C10.8304 20.4627 11.2237 21 11.7088 21C12.194 21 12.5873 20.4627 12.5873 19.8C12.5873 19.1373 12.194 18.6 11.7088 18.6C11.2237 18.6 10.8304 19.1373 10.8304 19.8ZM12.0017 19.8C12.0017 20.0209 11.8706 20.2 11.7088 20.2C11.5471 20.2 11.416 20.0209 11.416 19.8C11.416 19.5791 11.5471 19.4 11.7088 19.4C11.8706 19.4 12.0017 19.5791 12.0017 19.8Z" fill="black"/>
<path d="M22.2505 19.8C22.2505 19.1373 21.8572 18.6 21.3721 18.6C20.8869 18.6 20.4936 19.1373 20.4936 19.8C20.4936 20.4627 20.8869 21 21.3721 21C21.8572 21 22.2505 20.4627 22.2505 19.8ZM21.0792 19.8C21.0792 19.5791 21.2103 19.4 21.3721 19.4C21.5338 19.4 21.6649 19.5791 21.6649 19.8C21.6649 20.0209 21.5338 20.2 21.3721 20.2C21.2103 20.2 21.0792 20.0209 21.0792 19.8Z" fill="black"/>
<path d="M21.6649 15.6353V15.0503C21.2277 14.8416 20.9347 14.2848 20.9328 13.6588V10.6941C20.9328 10.4212 20.7689 10.2 20.5668 10.2H18.9196C18.8186 10.2 18.7366 10.3106 18.7366 10.4471V13.9059C18.7366 14.0423 18.8186 14.1529 18.9196 14.1529H19.8347C20.0369 14.1529 20.2007 14.3742 20.2007 14.6471C20.2007 14.92 20.0369 15.1412 19.8347 15.1412H18.9196C18.8186 15.1412 18.7366 15.2518 18.7366 15.3882V18.3529C18.7366 18.4894 18.8186 18.6 18.9196 18.6H19.2579C19.5478 17.6999 20.2057 17.1177 20.9328 17.1177C21.6599 17.1177 22.3178 17.6999 22.6078 18.6H22.946C23.047 18.6 23.129 18.4894 23.129 18.3529V17.1176H22.763C22.1565 17.1176 21.6649 16.454 21.6649 15.6353ZM20.9328 13.2C20.9328 13.5314 20.687 13.8 20.3838 13.8C20.0805 13.8 19.8347 13.5314 19.8347 13.2V12C19.8347 11.6686 20.0805 11.4 20.3838 11.4C20.687 11.4 20.9328 11.6686 20.9328 12V13.2Z" fill="black"/>
<path d="M22.2505 12.6V13.2C22.2505 13.5314 22.4472 13.8 22.6898 13.8H23.129V12.9C23.129 12.7343 23.0307 12.6 22.9094 12.6H22.2505Z" fill="black"/>
</svg>
