<svg width="24" height="24" viewBox="0 0 24 24" fill="none" xmlns="http://www.w3.org/2000/svg">
<path d="M3.17647 22H10.2353V9.05882H3.17647V22Z" fill="black"/>
<path d="M2 6.70588V7.88235H10.2353V6.70588H2Z" fill="black"/>
<path d="M8.72261 3.17647V5.44911C8.72261 5.78509 8.49695 6.05761 8.21846 6.05761H5.19309C4.91482 6.05761 4.68894 5.78509 4.68894 5.44911V3.17647C3.74204 3.97097 3.17712 5.27425 3.17647 6.66586V7.88235H10.2353L10.2353 6.66586C10.2347 5.27425 9.66973 3.97097 8.72261 3.17647Z" fill="black"/>
<path d="M20.8235 6.6656C20.8227 5.27399 20.2578 3.97097 19.3109 3.17647V5.44911C19.3109 5.78509 19.0852 6.05735 18.8068 6.05735H15.7815C15.503 6.05735 15.2773 5.78483 15.2773 5.44911V3.17647C14.3305 3.97097 13.7656 5.27399 13.7647 6.6656V7.88235H20.8235V6.6656Z" fill="black"/>
<path d="M7.88236 2.17382C7.11508 1.94206 6.29645 1.94206 5.52942 2.17382V4.35294H7.88236V2.17382Z" fill="black"/>
<path d="M18.4706 2.17382C17.7033 1.94206 16.8847 1.94206 16.1177 2.17382V4.35294H18.4706V2.17382Z" fill="black"/>
<path d="M13.7647 22H20.8235V9.05882H13.7647V22Z" fill="black"/>
<path d="M13.7647 6.70588V7.88235H22V6.70588H13.7647Z" fill="black"/>
</svg>
