<svg width="24" height="24" viewBox="0 0 24 24" fill="none" xmlns="http://www.w3.org/2000/svg">
<path d="M17.2648 19.3478H5.73526C5.24005 19.3478 4.8852 19.8269 5.03441 20.2979C5.54999 21.9252 7.36049 23 9.29612 23C10.0795 23 10.8329 22.8331 11.4998 22.5142C12.1663 22.833 12.9198 23 13.7036 23C15.6293 23 17.4491 21.9312 17.9658 20.2975C18.1142 19.828 17.7613 19.3478 17.2648 19.3478Z" fill="black"/>
<path d="M5.73518 12.0435H17.2647C17.7599 12.0435 18.1148 11.6082 17.9656 11.1802C17.45 9.70171 15.6395 8.72515 13.7039 8.72515C13.1871 8.72515 12.6835 8.79151 12.2092 8.91947C12.1477 8.35655 11.9761 7.81278 11.7041 7.30933H11.837C14.672 7.30933 16.9791 5.22542 16.9791 2.66367C16.9791 2.29732 16.65 2 16.2445 2H14.7753C12.4222 2 10.4335 3.43529 9.82475 5.38779C9.01152 4.91035 8.07194 4.65466 7.09264 4.65466C6.68696 4.65466 6.35806 4.95181 6.35806 5.31833C6.35806 5.68485 6.68696 5.982 7.09264 5.982C8.90579 5.982 10.4622 7.2761 10.7257 8.90204C10.2705 8.78532 9.78939 8.72515 9.29639 8.72515C7.37071 8.72515 5.5509 9.69622 5.03424 11.1806C4.88576 11.6072 5.23865 12.0435 5.73518 12.0435Z" fill="black"/>
<path d="M7 12.9565C7.56004 13.5248 7.98511 14.4981 7.98511 15.6957C7.98511 16.8932 7.56004 17.8665 7 18.4348H16C15.44 17.8665 15.0149 16.8932 15.0149 15.6957C15.0149 14.4981 15.44 13.5248 16 12.9565H7ZM12.203 17.3391C12.203 17.6415 11.888 17.887 11.5 17.887C11.112 17.887 10.797 17.6415 10.797 17.3391V16.7913C10.797 16.4889 11.112 16.2435 11.5 16.2435C11.888 16.2435 12.203 16.4889 12.203 16.7913V17.3391ZM12.203 14.6C12.203 14.9024 11.888 15.1478 11.5 15.1478C11.112 15.1478 10.797 14.9024 10.797 14.6V14.0522C10.797 13.7498 11.112 13.5043 11.5 13.5043C11.888 13.5043 12.203 13.7498 12.203 14.0522V14.6Z" fill="black"/>
</svg>
